<svg xmlns="http://www.w3.org/2000/svg" version="1.1" xmlns:xlink="http://www.w3.org/1999/xlink" width="512" height="512" x="0" y="0" viewBox="0 0 510 510" style="enable-background:new 0 0 512 512" xml:space="preserve" fill-rule="evenodd" class=""><g><path d="M245.014 494.976c-52.931 0-96.114-43.154-96.114-96.086s43.183-96.114 96.114-96.114c52.932 0 96.086 43.182 96.086 96.114s-43.154 96.086-96.086 96.086zm-12.616-87.627-21.477-21.477c-5.562-5.563-14.595-5.563-20.157 0-5.563 5.591-5.563 14.595 0 20.158l31.569 31.598c5.563 5.563 14.595 5.563 20.158 0 19.039-19.039 37.849-38.279 56.803-57.405 5.534-5.591 5.505-14.595-.058-20.129-5.562-5.534-14.595-5.505-20.129.058zM100.379 242.553c0 2.17-1.164 4.031-3.119 4.981-1.954.948-4.137.712-5.842-.631l-54.305-42.755c-1.379-1.085-2.112-2.596-2.112-4.35 0-1.755.733-3.265 2.112-4.35l54.305-42.755c1.707-1.344 3.889-1.579 5.843-.63 1.953.948 3.118 2.808 3.118 4.98v16.824H205c17.916 0 34.17 7.296 45.937 19.063C262.705 204.697 270 220.951 270 238.867v36.368c-8.081-1.625-16.44-2.483-25-2.483s-16.919.857-25 2.483v-36.368c0-4.114-1.69-7.861-4.414-10.586-2.724-2.724-6.471-4.413-10.586-4.413H100.379zM202.245 80.378c-2.172 0-4.031-1.165-4.98-3.119s-.713-4.136.63-5.843l42.755-54.305C241.736 15.733 243.246 15 245 15c1.755 0 3.265.733 4.351 2.111l42.754 54.306c1.344 1.707 1.58 3.888.63 5.842-.947 1.954-2.808 3.119-4.98 3.119H270v79.257c-13.928-13.086-31.331-21.595-50-24.578V80.378zm244.231 368.387c2.029.773 3.352 2.525 3.542 4.689s-.808 4.118-2.671 5.234l-59.298 35.508c-1.506.901-3.177 1.048-4.817.423-1.639-.626-2.789-1.849-3.312-3.523l-20.6-65.976c-.647-2.073-.09-4.195 1.493-5.683 1.581-1.488 3.735-1.914 5.764-1.14l13.339 5.087c5.23-49.665-19.711-98.523-62.983-123.506a127.32 127.32 0 0 0-16.934-8.174v-52.512a178.138 178.138 0 0 1 41.934 17.522c64.446 37.207 98.985 111.83 85.674 184.856zm-36.854-206.212v-18.685H298.81c-2.927-18.324-11.179-35.428-23.856-49.224a65.13 65.13 0 0 1 10.046-.777h124.622v-16.824c0-2.172 1.165-4.032 3.118-4.98 1.954-.949 4.136-.714 5.842.63l54.306 42.755c1.378 1.085 2.111 2.595 2.111 4.35 0 1.754-.732 3.265-2.111 4.35l-54.305 42.755c-1.707 1.343-3.889 1.579-5.843.631-1.954-.95-3.118-2.81-3.118-4.981z" fill="#fff" opacity="1" data-original="#fff" class=""></path></g></svg>