<svg xmlns="http://www.w3.org/2000/svg" version="1.1" xmlns:xlink="http://www.w3.org/1999/xlink" width="512" height="512" x="0" y="0" viewBox="0 0 682.667 682.667" style="enable-background:new 0 0 512 512" xml:space="preserve" class=""><g><defs><clipPath id="a" clipPathUnits="userSpaceOnUse"><path d="M0 512h512V0H0Z" fill="#fff" opacity="1" data-original="#fff"></path></clipPath><clipPath id="b" clipPathUnits="userSpaceOnUse"><path d="M0 512h512V0H0Z" fill="#fff" opacity="1" data-original="#fff"></path></clipPath></defs><g clip-path="url(#a)" transform="matrix(1.33333 0 0 -1.33333 0 682.667)"><path d="M0 0c21.71 4.982 42.01 13.557 60.335 25.042l34.409-34.41 62.73 62.729-34.41 34.41c11.485 18.325 20.054 38.663 25.037 60.373h48.633v88.712h-48.633c-4.983 21.71-13.552 42.048-25.037 60.373l34.41 34.41-62.73 62.729-34.409-34.41C42.01 371.443 21.672 380.012-.038 384.995v48.633H-88.75v-48.633c-21.711-4.983-42.048-13.552-60.373-25.037l-34.41 34.41-62.729-62.729 34.409-34.41c-11.484-18.325-20.054-38.663-25.036-60.373h-48.633v-88.712h48.633c4.982-21.71 13.552-42.048 25.036-60.373l-34.409-34.41 62.729-62.729 34.41 34.41C-130.798 13.557-110.461 4.988-88.75.005" style="stroke-width:30;stroke-linecap:butt;stroke-linejoin:miter;stroke-miterlimit:10;stroke-dasharray:none;stroke-opacity:1" transform="translate(300.394 63.5)" fill="none" stroke="#fff" stroke-width="30" stroke-linecap="butt" stroke-linejoin="miter" stroke-miterlimit="10" stroke-dasharray="none" stroke-opacity="" data-original="#fff" class=""></path><path d="M0 0h-88.75l-.009 148.995c-34.447 16.55-58.228 51.767-58.228 92.538 0 42.609 25.973 79.149 62.95 94.659v-88.534l39.658-23.835 39.658 23.835v88.534c36.976-15.51 62.949-52.05 62.949-94.659 0-40.771-23.781-75.988-58.228-92.538z" style="stroke-width:30;stroke-linecap:butt;stroke-linejoin:miter;stroke-miterlimit:10;stroke-dasharray:none;stroke-opacity:1" transform="translate(300.394 14.872)" fill="none" stroke="#fff" stroke-width="30" stroke-linecap="butt" stroke-linejoin="miter" stroke-miterlimit="10" stroke-dasharray="none" stroke-opacity="" data-original="#fff" class=""></path></g><g clip-path="url(#b)" transform="matrix(1.33333 0 0 -1.33333 0 682.667)"><path d="m0 0 7.187 7.187c9.749 9.749 25.554 9.749 35.303 0l39.213-39.213c9.749-9.749 9.749-25.554 0-35.302L62.097-86.935C-53.284-202.316-332.977 77.377-217.596 192.758l19.625 19.625c9.741 9.741 25.532 9.749 35.284.018l39.254-39.173c9.766-9.745 9.774-25.565.019-35.32l-7.247-7.247C-184.049 77.273-53.388-53.388 0 0Z" style="stroke-width:30;stroke-linecap:butt;stroke-linejoin:miter;stroke-miterlimit:10;stroke-dasharray:none;stroke-opacity:1" transform="translate(259.978 660.743)" fill="none" stroke="#fff" stroke-width="30" stroke-linecap="butt" stroke-linejoin="miter" stroke-miterlimit="10" stroke-dasharray="none" stroke-opacity="" data-original="#fff" class=""></path></g></g></svg>