<svg width="13" height="10" viewBox="0 0 13 10" fill="none" xmlns="http://www.w3.org/2000/svg">
<path d="M0.601563 1.72124C0.632487 1.62445 0.663697 1.52796 0.703784 1.40283C1.88062 2.60601 3.04199 3.79401 4.1753 4.95281C3.046 6.10702 1.88234 7.29617 0.703498 8.50106C0.663697 8.37651 0.632487 8.27972 0.601562 8.18323C0.601563 6.02914 0.601563 3.87533 0.601563 1.72124Z" fill="#FFF"/>
<path d="M11.7115 0.932265C11.6812 0.964907 11.6566 0.992968 11.6299 1.0196C10.1633 2.48219 8.69643 3.94479 7.22983 5.4071C6.91343 5.72235 6.54205 5.84462 6.11484 5.68914C5.96624 5.63502 5.81935 5.53967 5.70653 5.42771C4.21616 3.95137 2.73209 2.46845 1.24659 0.986955C1.23084 0.971206 1.21738 0.953167 1.18359 0.914226C1.32562 0.883302 1.44931 0.854096 1.57387 0.830903C1.61825 0.822599 1.66521 0.827753 1.71074 0.827753C4.87358 0.827753 8.03615 0.827753 11.199 0.82718C11.3751 0.82718 11.5455 0.845506 11.7118 0.932551L11.7115 0.932265Z" fill="#FFF"/>
<path d="M1.24023 8.99354C2.39674 7.81155 3.55868 6.62412 4.73008 5.42725C4.8993 5.59762 5.0522 5.75052 5.20425 5.90428C5.43961 6.14308 5.7145 6.3166 6.04263 6.39105C6.67572 6.53507 7.22491 6.371 7.68849 5.9186C7.84654 5.76426 7.99859 5.60363 8.16609 5.43297C9.3372 6.63071 10.5006 7.82072 11.664 9.01072C11.5486 9.0279 11.3902 9.07085 11.2313 9.07228C10.4579 9.07944 9.68452 9.07543 8.91113 9.07543C6.50707 9.07543 4.10301 9.07543 1.69894 9.076C1.52657 9.076 1.36021 9.05539 1.24052 8.99325L1.24023 8.99354Z" fill="#FFF"/>
<path d="M12.1975 8.49632C11.0246 7.29773 9.86269 6.1103 8.72852 4.95122C9.86269 3.79242 11.0246 2.60471 12.1866 1.41699C12.2032 1.42071 12.2201 1.42444 12.2367 1.42816C12.2607 1.5865 12.3045 1.74485 12.3054 1.90347C12.3117 2.9002 12.3086 3.89693 12.3086 4.89366C12.3086 5.92475 12.308 6.95584 12.3091 7.98693C12.3091 8.15616 12.2842 8.31794 12.1972 8.49604L12.1975 8.49632Z" fill="#FFF"/>
</svg>
