<svg xmlns="http://www.w3.org/2000/svg" version="1.1" xmlns:xlink="http://www.w3.org/1999/xlink" width="512" height="512" x="0" y="0" viewBox="0 0 64 64" style="enable-background:new 0 0 512 512" xml:space="preserve" class=""><g><path d="M63 36h-2v-5.938c0-4.866-3.475-9.025-8.19-9.945l-.126-.502A3.995 3.995 0 0 0 55 16h1c1.654 0 3-1.346 3-3 0-.55-.159-1.059-.418-1.502A7.933 7.933 0 0 0 59 8.974C59 4.577 55.423 1 51.026 1h-4.053c-4.363 0-7.915 3.524-7.969 7.875a9.966 9.966 0 0 0-14.009 0C24.942 4.524 21.39 1 17.026 1h-4.053C8.577 1 5 4.577 5 8.974c0 .866.145 1.712.418 2.525A2.963 2.963 0 0 0 5 13c0 1.654 1.346 3 3 3h1c0 1.602.952 2.977 2.315 3.615l-.126.502C6.475 21.037 3 25.196 3 30.063V36H1v2h5v3.734l2.653.832a23.758 23.758 0 0 0 2.904 7.002l-1.289 2.469 6.695 6.695 2.469-1.29a23.743 23.743 0 0 0 7.001 2.905L27.266 63h9.469l.833-2.652a23.743 23.743 0 0 0 7.001-2.905l2.469 1.29 6.695-6.695-1.289-2.469a23.731 23.731 0 0 0 2.904-7.002L58 41.734V38h5zm-4-5.937V36H43.997a10.137 10.137 0 0 0-4.067-8.045 6.953 6.953 0 0 0 2.019-4.134 8.036 8.036 0 0 1 1.338-.9l.928 9.279L49 27.414l4.785 4.785.93-9.3A8.15 8.15 0 0 1 59 30.063zm-30.978-1.846C28.137 30.32 29.869 32 32 32s3.863-1.68 3.978-3.783c3.479.937 5.991 4.098 6.019 7.783H22.003c.028-3.685 2.54-6.847 6.019-7.783zM30 27.122 30.281 26h3.439l.28 1.122V28c0 1.103-.897 2-2 2s-2-.897-2-2zM34 24h-4c-1.103 0-2-.897-2-2v-4.085a5.786 5.786 0 0 0 3.121-1.622l.879-.879.879.879A5.786 5.786 0 0 0 36 17.915V22c0 1.103-.897 2-2 2zm-2 16a2.996 2.996 0 0 1-2.816-2h5.631A2.994 2.994 0 0 1 32 40zm-4.899-2c.13.637.384 1.228.732 1.752l-4.988 4.988A11.938 11.938 0 0 1 20.051 38zm2.146 3.167a4.97 4.97 0 0 0 1.753.732v7.05a11.939 11.939 0 0 1-6.741-2.795zm3.753.732a4.961 4.961 0 0 0 1.753-.732l4.987 4.988a11.939 11.939 0 0 1-6.741 2.795v-7.051zm8.155 2.841-4.988-4.988A4.975 4.975 0 0 0 36.899 38h7.05a11.935 11.935 0 0 1-2.794 6.74zM18.051 38c.516 7.253 6.567 13 13.949 13s13.433-5.747 13.949-13h4C49.426 47.459 41.588 55 32 55s-17.426-7.541-17.949-17zm32.668-18 .21.841L49 24.056l-1.929-3.216.21-.84zm1.786 2.101c.092.019.183.04.273.062l-.564 5.638-1.956-1.956zm-7 .017 2.236 3.727-1.956 1.956-.563-5.625c.094-.023.189-.039.283-.058zm-.315-2.001c-1.136.22-2.204.651-3.19 1.233V16h1c0 1.602.952 2.977 2.315 3.615zM43 14h-1c-.071 0-.14-.016-.208-.03a9.89 9.89 0 0 0-.506-1.659A.99.99 0 0 1 42 12h1zm10 2c0 1.103-.897 2-2 2h-4c-1.103 0-2-.897-2-2v-4.003a10.519 10.519 0 0 0 4-.893c1.258.556 2.627.861 4 .893zm3-2h-1v-2h1a1.001 1.001 0 0 1 0 2zM46.974 3h4.053A5.98 5.98 0 0 1 57 8.974c0 .398-.041.79-.118 1.174A2.933 2.933 0 0 0 56 10H53.236a8.522 8.522 0 0 1-3.789-.895L49 8.882l-.447.224a8.534 8.534 0 0 1-3.789.894H42c-.306 0-.604.047-.887.134A5.98 5.98 0 0 1 46.974 3zM32 8c4.411 0 8 3.589 8 8v7a4.974 4.974 0 0 1-1.857 3.883 10.036 10.036 0 0 0-2.333-.766l-.126-.502A3.995 3.995 0 0 0 38 22v-6h-1a3.804 3.804 0 0 1-2.707-1.121L32 12.586l-2.293 2.293A3.804 3.804 0 0 1 27 16h-1v6c0 1.602.952 2.977 2.315 3.615l-.126.502c-.82.16-1.6.424-2.333.766A4.976 4.976 0 0 1 24 23v-7c0-4.411 3.589-8 8-8zM18.81 20.117l-.126-.502A3.995 3.995 0 0 0 21 16h1v5.35a10.026 10.026 0 0 0-3.19-1.233zM13 21.122 13.281 20h3.439l.28 1.122V22c0 1.103-.897 2-2 2s-2-.897-2-2zM21 12h1c.276 0 .529.119.714.31a9.89 9.89 0 0 0-.506 1.659c-.068.015-.137.031-.208.031h-1zM8 14a1.001 1.001 0 0 1 0-2h1v2zm1.012-4H8c-.31 0-.603.061-.884.148A5.98 5.98 0 0 1 12.974 3h4.053a5.98 5.98 0 0 1 5.859 7.135A2.972 2.972 0 0 0 22 10h-2.636a7.078 7.078 0 0 1-5.036-2.086A3.097 3.097 0 0 0 12.121 7a3.119 3.119 0 0 0-3.109 3zm1.988.121a1.122 1.122 0 0 1 1.914-.793A9.058 9.058 0 0 0 19 11.993V16c0 1.103-.897 2-2 2h-4c-1.103 0-2-.897-2-2zM5 30.063c0-3.712 2.523-6.904 6.022-7.846C11.137 24.32 12.869 26 15 26c2.132 0 3.863-1.68 3.978-3.784a8.045 8.045 0 0 1 3.073 1.605 6.951 6.951 0 0 0 2.018 4.134A10.134 10.134 0 0 0 20.002 36H5zm51 10.203-2.359.74-.121.572a21.794 21.794 0 0 1-3.068 7.397l-.319.489 1.147 2.197-4.619 4.617-2.196-1.147-.49.319a21.74 21.74 0 0 1-7.396 3.068l-.572.121L35.266 61h-6.531l-.74-2.359-.572-.121a21.78 21.78 0 0 1-7.396-3.068l-.49-.319-2.196 1.147-4.619-4.617 1.147-2.197-.319-.489a21.762 21.762 0 0 1-3.068-7.397l-.121-.572L8 40.266V38h4.051C12.577 48.562 21.31 57 32 57s19.423-8.438 19.949-19H56z" fill="#fff" opacity="1" data-original="#fff" class=""></path></g></svg>