<svg width="13" height="14" viewBox="0 0 13 14" fill="none" xmlns="http://www.w3.org/2000/svg">
<path d="M6.36381 0.974121C6.63501 1.03658 6.90863 1.09023 7.177 1.16305C8.42459 1.50131 9.48556 2.15171 10.3725 3.08955C11.1852 3.94875 11.7339 4.95458 12.0395 6.09498C12.085 6.26517 12.1222 6.43764 12.1632 6.60911C12.1632 6.62487 12.1632 6.64062 12.1632 6.65652C11.858 6.71145 11.5527 6.76653 11.2547 6.82018C10.6142 4.088 8.92953 2.45136 6.1718 1.88882C6.21068 1.59485 6.2517 1.28442 6.29271 0.974121C6.31641 0.974121 6.34011 0.974121 6.36381 0.974121Z" fill="#FFF"/>
<path d="M8.60184 13.0963C7.97542 13.0806 7.35595 12.9213 6.76231 12.6633C4.40337 11.6376 2.57549 9.9978 1.21819 7.82559C0.725458 7.03694 0.338877 6.19661 0.129833 5.28418C0.0302075 4.8494 -0.00030449 4.41064 0.1155 3.97302C0.175105 3.74775 0.290199 3.55087 0.454539 3.38551C0.768743 3.06939 1.0828 2.75299 1.40198 2.44185C1.66906 2.18152 1.98029 2.04979 2.34686 2.20409C2.48452 2.262 2.61565 2.3564 2.72336 2.46129C3.18672 2.91268 3.641 3.3733 4.09698 3.83221C4.31595 4.05266 4.46965 4.30206 4.42239 4.63166C4.38876 4.86587 4.25564 5.04486 4.09499 5.2064C3.8279 5.47482 3.5584 5.74097 3.29046 6.00854C3.14755 6.15119 3.14599 6.1837 3.23001 6.37178C3.53541 7.05539 4.00402 7.62318 4.50541 8.16626C5.00226 8.70452 5.54921 9.18657 6.1708 9.57693C6.38368 9.71064 6.6133 9.81781 6.83455 9.93818C6.94241 9.99695 7.02074 9.94996 7.09596 9.87402C7.37355 9.59382 7.65156 9.3139 7.93128 9.03583C8.09278 8.87529 8.27117 8.74441 8.50732 8.71261C8.74929 8.68011 8.95777 8.75364 9.14495 8.90013C9.20683 8.94867 9.26544 9.00219 9.32122 9.05769C9.7684 9.50297 10.2147 9.94939 10.6612 10.3954C10.8084 10.5423 10.9324 10.705 10.9774 10.9126C11.0347 11.1771 10.9726 11.4242 10.7929 11.6174C10.4415 11.9957 10.0815 12.3672 9.70666 12.722C9.40963 13.0037 9.03014 13.0959 8.60184 13.0963Z" fill="#FFF"/>
<path d="M6.04436 4.31951C6.08722 4.01419 6.12937 3.71426 6.17137 3.41475C7.6808 3.54718 9.37685 4.85409 9.70013 6.82345C9.39941 6.8754 9.09841 6.9275 8.7886 6.98101C8.44744 5.51087 7.53661 4.62484 6.04436 4.31951Z" fill="#FFF"/>
</svg>
