<svg width="18" height="18" viewBox="0 0 18 18" fill="none" xmlns="http://www.w3.org/2000/svg">
<path d="M9.89609 17.7597C9.53952 17.7597 9.18295 17.7597 8.82638 17.7597C8.78399 17.75 8.74216 17.7343 8.69919 17.7313C7.93391 17.6773 7.19098 17.5152 6.47039 17.2555C2.23855 15.7307 -0.0866974 11.2188 1.12453 6.88749C2.62701 1.51514 8.80232 -1.00379 13.6491 1.80953C15.9339 3.13563 17.3069 5.14253 17.7897 7.74604C17.8462 8.05131 17.8762 8.36155 17.9184 8.66949C17.9184 9.01486 17.9184 9.36023 17.9184 9.70559C17.9089 9.75924 17.8974 9.8125 17.89 9.86634C17.8436 10.2022 17.8139 10.5412 17.7498 10.8736C17.0836 14.3183 14.2962 17.0396 10.8344 17.6286C10.5233 17.6815 10.2091 17.7164 9.89609 17.7597ZM9.67971 11.5624C9.91996 11.7253 10.1455 11.8778 10.3709 12.0307C10.9744 12.4399 11.5758 12.8524 12.1824 13.2574C12.5342 13.4922 12.9461 13.3402 13.0359 12.945C13.5901 10.5046 14.1421 8.06372 14.6934 5.62268C14.7523 5.36246 14.6081 5.11332 14.3462 5.06693C14.212 5.04306 14.0552 5.06177 13.9255 5.10816C10.7171 6.25824 7.51107 7.41442 4.30462 8.56984C4.10294 8.64258 4.01012 8.75273 4.01528 8.91005C4.02044 9.07366 4.1249 9.17752 4.34072 9.23613C5.08632 9.43926 5.83097 9.64641 6.57849 9.84305C6.71409 9.87875 6.77731 9.94653 6.82047 10.0762C7.09453 10.899 7.37643 11.7192 7.65679 12.5399C7.74885 12.8095 7.94289 12.9412 8.18658 12.8776C8.28303 12.8524 8.37757 12.7873 8.45244 12.7182C8.86114 12.3402 9.26355 11.9557 9.67971 11.5624Z" fill="white"/>
<path d="M7.92761 12.0538C7.90717 12.0054 7.88349 11.9578 7.86668 11.908C7.64972 11.2602 7.43353 10.6121 7.2181 9.9639C7.14476 9.7432 7.16749 9.68306 7.36478 9.57004C9.09644 8.57766 10.8283 7.58529 12.5601 6.5931C12.5842 6.57936 12.6083 6.55415 12.6325 6.55396C12.6925 6.55358 12.7527 6.56446 12.8128 6.57076C12.7958 6.62708 12.7966 6.70402 12.759 6.7361C12.4669 6.98524 12.1677 7.22579 11.8703 7.46883C10.6896 8.43352 9.50992 9.39917 8.32696 10.3612C8.21905 10.449 8.16825 10.5477 8.1545 10.6852C8.11439 11.0892 8.06283 11.4918 8.01412 11.8948C8.00782 11.9466 7.9914 11.997 7.97956 12.0479C7.96237 12.0502 7.94499 12.0521 7.92761 12.0538Z" fill="white"/>
</svg>
