<svg width="18" height="18" viewBox="0 0 18 18" fill="none" xmlns="http://www.w3.org/2000/svg">
<path d="M0.144531 9.23689C0.144531 8.94832 0.144531 8.65995 0.144531 8.37138C0.154372 8.32528 0.169356 8.27961 0.172935 8.2333C0.269327 6.96108 0.64841 5.7701 1.34015 4.68225C2.69747 2.54708 4.66065 1.2354 7.23014 0.774021C7.55152 0.716348 7.87872 0.688048 8.20323 0.64624C8.53759 0.64624 8.87194 0.64624 9.2063 0.64624C9.49279 0.680544 9.78085 0.705199 10.0653 0.750866C11.8409 1.03537 13.3912 1.76432 14.6696 2.98038C16.609 4.82526 17.4632 7.07192 17.2169 9.67727C17.0537 11.4062 16.3608 12.9453 15.1482 14.2379C13.111 16.4095 10.5589 17.3229 7.53229 16.9749C6.31073 16.8345 5.18153 16.422 4.14447 15.7856C4.0407 15.722 3.95214 15.7119 3.83517 15.7483C2.85156 16.0547 1.86595 16.3555 0.88078 16.6574C0.831354 16.6726 0.780138 16.6827 0.715057 16.699C0.736974 16.6336 0.751959 16.5883 0.767614 16.5431C1.08072 15.6486 1.39092 14.7535 1.70984 13.861C1.75927 13.7225 1.75234 13.6196 1.66153 13.4952C0.949216 12.5191 0.489396 11.44 0.27872 10.2666C0.217888 9.92575 0.188366 9.58014 0.144531 9.23689ZM11.4718 13.4762C11.7514 13.4245 11.995 13.408 12.2173 13.3336C13.4234 12.9303 13.8309 12.3744 13.8629 11.2957C13.8678 11.1313 13.7998 11.023 13.6462 10.9527C13.0085 10.6613 12.3749 10.3623 11.7346 10.0763C11.4074 9.93004 11.2149 9.98943 10.9984 10.2677C10.832 10.4817 10.6698 10.6987 10.4983 10.9088C10.2366 11.2291 10.053 11.2713 9.65762 11.1165C8.22515 10.5561 7.16931 9.58829 6.37804 8.33321C6.27539 8.17049 6.28344 8.01912 6.4107 7.87633C6.54444 7.72604 6.67594 7.57296 6.82154 7.43361C7.13979 7.12916 7.26302 6.79985 7.00157 6.40515C6.99867 6.40064 6.998 6.39507 6.99576 6.39014C6.74147 5.8162 6.49188 5.24011 6.22798 4.67025C6.18705 4.58213 6.09177 4.47643 6.00254 4.45628C5.54675 4.35358 5.08693 4.34715 4.69465 4.63509C4.3348 4.89922 4.08252 5.25319 3.92351 5.66162C3.60995 6.46732 3.70948 7.25244 4.05613 8.02684C4.31109 8.59628 4.68324 9.09518 5.06389 9.58851C5.70643 10.421 6.44022 11.1695 7.29433 11.8082C8.2133 12.4953 9.26131 12.9279 10.3673 13.2418C10.7383 13.3471 11.1241 13.4039 11.4718 13.4762Z" fill="white"/>
</svg>
